# xmcd CD database file
#
# Track frame offsets:
#	150
#	18157
#	40142
#	58150
#
# Disc length: 1066 seconds
#
# Revision: 0
# Processed by: cddbd v1.5.1PL0 Copyright (c) Steve Scherf et al.
# Submitted via: CDex 1.51
#
DISCID=2a042804
DTITLE=米倉千尋 - Little Soldier
DYEAR=2001
DGENRE=Vocal
TTITLE0=Little Soldier
TTITLE1=レンズ越しの宇宙の下で
TTITLE2=Little Soldier（カラオケVer.）
TTITLE3=レンズ越しの宇宙の下で（カラオケVer.）
EXTD=YEAR: 2001
EXTT0=
EXTT1=
EXTT2=
EXTT3=
PLAYORDER=
